<svg width="19" height="20" viewBox="0 0 19 20" fill="none" xmlns="http://www.w3.org/2000/svg">
<g clip-path="url(#clip0_201_4128)">
<path d="M9.5 1.79031C12.0365 1.79031 12.3373 1.80024 13.3388 1.84827C14.3743 1.89796 15.4407 2.14473 16.1951 2.93388C16.9567 3.7305 17.1855 4.83515 17.233 5.92159C17.2789 6.96911 17.2884 7.28378 17.2884 9.93695C17.2884 12.5901 17.2789 12.9048 17.233 13.9523C17.1863 15.0296 16.9448 16.1558 16.1951 16.94C15.4335 17.7366 14.3783 17.9759 13.3388 18.0256C12.3373 18.0737 12.0365 18.0836 9.5 18.0836C6.9635 18.0836 6.66267 18.0737 5.66121 18.0256C4.63917 17.9768 3.54825 17.7184 2.80488 16.94C2.04725 16.1475 1.8145 15.0321 1.767 13.9523C1.72108 12.9048 1.71158 12.5901 1.71158 9.93695C1.71158 7.28378 1.72108 6.96911 1.767 5.92159C1.81371 4.8484 2.05754 3.71559 2.80488 2.93388C3.56488 2.13893 4.62492 1.89796 5.66121 1.84827C6.66267 1.80024 6.9635 1.79031 9.5 1.79031ZM9.5 0C6.91996 0 6.59617 0.0115931 5.58283 0.0596217C4.11429 0.130008 2.65604 0.557297 1.59442 1.66775C0.528833 2.78235 0.124292 4.30436 0.057 5.83961C0.0110833 6.89956 0 7.23824 0 9.93695C0 12.6357 0.0110833 12.9743 0.057 14.0343C0.124292 15.5687 0.534375 17.0982 1.59442 18.2062C2.65921 19.3199 4.11667 19.7439 5.58283 19.8143C6.59617 19.8623 6.91996 19.8739 9.5 19.8739C12.08 19.8739 12.4038 19.8623 13.4172 19.8143C14.8849 19.7439 16.3448 19.3158 17.4056 18.2062C18.472 17.0907 18.8757 15.5695 18.943 14.0343C18.9889 12.9743 19 12.6357 19 9.93695C19 7.23824 18.9889 6.89956 18.943 5.83961C18.8757 4.30353 18.4664 2.77738 17.4056 1.66775C16.3424 0.555641 14.881 0.12918 13.4172 0.0596217C12.4038 0.0115931 12.08 0 9.5 0Z" fill="white"/>
<path d="M9.49995 4.83398C6.80591 4.83398 4.6217 7.11866 4.6217 9.93661C4.6217 12.7546 6.80591 15.0392 9.49995 15.0392C12.194 15.0392 14.3782 12.7546 14.3782 9.93661C14.3782 7.11866 12.194 4.83398 9.49995 4.83398ZM9.49995 13.2489C7.75116 13.2489 6.33329 11.7658 6.33329 9.93661C6.33329 8.10738 7.75116 6.62429 9.49995 6.62429C11.2487 6.62429 12.6666 8.10738 12.6666 9.93661C12.6666 11.7658 11.2487 13.2489 9.49995 13.2489Z" fill="white"/>
<path d="M14.5714 5.82432C15.201 5.82432 15.7114 5.29045 15.7114 4.63189C15.7114 3.97332 15.201 3.43945 14.5714 3.43945C13.9418 3.43945 13.4314 3.97332 13.4314 4.63189C13.4314 5.29045 13.9418 5.82432 14.5714 5.82432Z" fill="white"/>
</g>
<defs>
<clipPath id="clip0_201_4128">
<rect width="19" height="19.8739" fill="white"/>
</clipPath>
</defs>
</svg>
