<svg width="20" height="20" viewBox="0 0 20 20" fill="none" xmlns="http://www.w3.org/2000/svg">
<path d="M9.64235 0H10.3457C10.4611 0.0155691 10.5765 0.0321768 10.6919 0.046189C11.0658 0.0908203 11.4439 0.112617 11.8131 0.182158C13.7973 0.554259 15.5205 1.43443 16.9633 2.84031C18.6578 4.49427 19.6484 6.49697 19.9168 8.84686C19.9439 9.08351 19.9726 9.32016 20.0003 9.55629V10.3347C19.9852 10.4235 19.9674 10.5117 19.9554 10.6005C19.8927 11.0608 19.8609 11.5273 19.7653 11.9804C19.2954 14.212 18.1847 16.0802 16.4234 17.5334C13.9482 19.575 11.1029 20.2803 7.95049 19.658C5.70199 19.2138 3.82527 18.0892 2.36317 16.3366C0.312049 13.8835 -0.406992 11.0587 0.219623 7.93607C0.741803 5.33189 2.15952 3.27729 4.35006 1.76034C5.69411 0.825702 7.25639 0.248294 8.88832 0.0830337C9.13949 0.0560473 9.38909 0.0275053 9.64235 0ZM14.6553 6.78188C14.6621 6.1176 14.379 5.87732 13.8527 6.00343C13.5612 6.06841 13.2754 6.15621 12.9979 6.26603C10.7539 7.19429 8.51218 8.12843 6.27273 9.06846C5.56013 9.36738 4.8524 9.67721 4.14954 9.99793C3.95843 10.0846 3.74277 10.1957 3.76783 10.4593C3.79133 10.7094 4.01378 10.7816 4.20803 10.8444C4.75789 11.0208 5.31244 11.1817 5.86595 11.3472C6.44453 11.5195 6.96984 11.3991 7.45494 11.0577C7.52962 11.0058 7.6069 10.957 7.68261 10.9072C8.89024 10.1076 10.098 9.30805 11.306 8.50849C11.4335 8.41892 11.5679 8.33961 11.7081 8.27132C11.7645 8.24641 11.882 8.26043 11.9128 8.30143C11.9436 8.34243 11.9269 8.45193 11.8924 8.50901C11.8309 8.60053 11.7575 8.68359 11.6742 8.75604C10.8836 9.5075 10.0893 10.2553 9.30085 11.0089C9.05319 11.2383 8.81821 11.4808 8.59695 11.7354C8.39643 11.9726 8.41628 12.188 8.63246 12.4101C8.75629 12.5337 8.8924 12.6444 9.03871 12.7407C9.56089 13.0967 10.0831 13.4444 10.6053 13.7957C10.9932 14.0552 11.3786 14.3225 11.7697 14.5789C11.9249 14.6851 12.0894 14.7773 12.2611 14.8544C12.8292 15.0958 13.2349 14.9338 13.3916 14.3427C13.5634 13.6951 13.6772 13.0313 13.7916 12.3707C14.0067 11.1251 14.2118 9.8765 14.4067 8.62474C14.5096 7.97188 14.5832 7.31694 14.6542 6.78188H14.6553Z" fill="white"/>
</svg>
