<svg width="20" height="20" viewBox="0 0 20 20" fill="none" xmlns="http://www.w3.org/2000/svg">
<path fill-rule="evenodd" clip-rule="evenodd" d="M17.0477 2.88834C15.1713 1.02682 12.6767 0.000828079 10.0193 0C4.54304 0 0.0860488 4.41697 0.0835425 9.84752C0.0827071 11.5832 0.54052 13.2774 1.4102 14.7713L0 19.8739L5.26652 18.5043C6.71765 19.2893 8.35174 19.7025 10.0142 19.7033H10.0184C15.4938 19.7033 19.9516 15.2855 19.9541 9.85497C19.9558 7.22416 18.9232 4.74903 17.0477 2.88834ZM10.0193 18.0397H10.0159C8.53386 18.0397 7.08106 17.6447 5.81289 16.8986L5.5113 16.7214L2.38597 17.5337L3.22056 14.5129L3.02424 14.2032C2.19717 12.8998 1.76108 11.3935 1.76191 9.84752C1.76358 5.33449 5.46869 1.66278 10.0234 1.66278C12.229 1.66278 14.3025 2.5157 15.8614 4.06256C17.4203 5.61024 18.2783 7.66636 18.2774 9.85331C18.2749 14.368 14.5706 18.0397 10.0193 18.0397ZM14.5489 11.9094C14.3008 11.7861 13.0802 11.1907 12.8522 11.1087C12.6249 11.0267 12.4595 10.9853 12.2933 11.2312C12.127 11.4772 11.6525 12.032 11.5071 12.1968C11.3626 12.3607 11.2173 12.3814 10.9691 12.2581C10.721 12.1347 9.92067 11.8755 8.97246 11.0366C8.23478 10.3841 7.73603 9.57839 7.59151 9.33162C7.44698 9.08486 7.57647 8.95236 7.70011 8.82981C7.81206 8.71967 7.94823 8.54247 8.07271 8.39838C8.19802 8.25595 8.23896 8.15327 8.3225 7.98848C8.40521 7.82452 8.36427 7.68044 8.30162 7.55705C8.23896 7.4345 7.74272 6.22302 7.53637 5.73031C7.33503 5.25002 7.13035 5.31544 6.97747 5.30799C6.83294 5.30054 6.66753 5.29971 6.50128 5.29971C6.33586 5.29971 6.06686 5.36098 5.83962 5.60775C5.61238 5.85452 4.97078 6.44991 4.97078 7.66056C4.97078 8.87204 5.86051 10.0421 5.98415 10.2061C6.10779 10.37 7.73436 12.8559 10.2248 13.9217C10.8171 14.1751 11.2799 14.3266 11.64 14.44C12.2348 14.6272 12.7762 14.6007 13.2039 14.5378C13.6809 14.4674 14.6726 13.9424 14.8798 13.3677C15.0869 12.793 15.0869 12.2995 15.0243 12.1976C14.9625 12.0941 14.797 12.0328 14.5489 11.9094Z" fill="white"/>
</svg>
